<?xml version="1.0" encoding="UTF-8"?>
<svg version="1.1" xmlns="http://www.w3.org/2000/svg" width="500" height="500">
<path d="M0 0 C165 0 330 0 500 0 C500 165 500 330 500 500 C335 500 170 500 0 500 C0 335 0 170 0 0 Z " fill="#000000" transform="translate(0,0)"/>
<path d="M0 0 C6.01579943 3.43421621 9.6886728 6.8682802 11.625 13.625 C12.88889367 23.19574105 12.216145 32.88330943 9.28125 42.08203125 C8.11272858 46.61005175 8.07787852 49.64799736 10.375 53.75 C12.48919389 56.62669776 12.48919389 56.62669776 14.9375 58.6875 C16.625 60.625 16.625 60.625 16.75 62.9375 C13.78688711 70.01604747 8.17045399 74.02001646 1.625 77.625 C9.16488573 74.08313197 14.2494725 70.77525225 18.625 63.625 C19.615 62.14 19.615 62.14 20.625 60.625 C21.50800781 61.26566406 22.39101563 61.90632813 23.30078125 62.56640625 C24.51255211 63.44075414 25.72482856 64.31440159 26.9375 65.1875 C27.57179932 65.64495605 28.20609863 66.10241211 28.85961914 66.57373047 C32.67374904 69.30159694 36.53939048 71.83501365 40.5625 74.25 C47.9743732 78.90422038 53.72985949 85.253908 56.625 93.625 C56.78636669 95.49685357 56.94658935 97.36886073 57.08984375 99.2421875 C57.83633268 102.56597033 59.41120385 105.39126183 61 108.375 C64.31605021 114.60249846 66.28685544 120.6666483 67.625 127.625 C68.285 127.295 68.945 126.965 69.625 126.625 C80.82582638 125.77093699 89.84438584 126.65639314 98.9375 133.6875 C105.28733289 139.76685319 107.88070771 146.86908187 108.3125 155.5625 C107.96784185 164.28426599 104.76243845 172.05617487 98.375 178.125 C89.80834997 184.43333924 81.09681196 185.66218424 70.625 184.625 C62.56963846 182.84770595 56.61684183 178.40618796 51.94921875 171.75390625 C46.12797419 162.39526824 46.84245448 152.89706089 49.1875 142.42578125 C49.331875 141.83152344 49.47625 141.23726562 49.625 140.625 C48.84125 140.2125 48.0575 139.8 47.25 139.375 C44.49934558 137.54123039 43.91610023 136.54505847 42.625 133.625 C42.64820313 134.429375 42.67140625 135.23375 42.6953125 136.0625 C42.88345738 148.31879473 41.76435335 160.42997992 40.625 172.625 C38.07010895 170.18461387 36.37245298 167.70384573 34.625 164.625 C34.92535156 165.44484375 35.22570312 166.2646875 35.53515625 167.109375 C36.10556641 168.72585937 36.10556641 168.72585937 36.6875 170.375 C37.07035156 171.44234375 37.45320312 172.5096875 37.84765625 173.609375 C38.60510011 176.54780042 38.69651741 177.84848948 37.625 180.625 C37.21507812 179.91472656 36.80515625 179.20445312 36.3828125 178.47265625 C35.84398437 177.55355469 35.30515625 176.63445312 34.75 175.6875 C34.21632813 174.77097656 33.68265625 173.85445312 33.1328125 172.91015625 C31.82787437 170.51799704 31.82787437 170.51799704 29.625 169.625 C30.01171875 170.24246094 30.3984375 170.85992187 30.796875 171.49609375 C36.46365357 180.71162226 40.45490973 187.58258994 39.625 198.625 C36.625 198.625 36.625 198.625 34.125 196.1875 C33.3 195.341875 32.475 194.49625 31.625 193.625 C30.635 193.295 29.645 192.965 28.625 192.625 C29.30046875 193.26566406 29.9759375 193.90632812 30.671875 194.56640625 C41.39454343 204.96367578 41.39454343 204.96367578 43.4921875 212.91015625 C44.45870281 216.0796599 45.62888807 218.67951044 47.23901367 221.55712891 C53.3649182 232.57221828 56.33289517 244.53251331 59.74072266 256.59179688 C61.42528419 262.3700941 63.45100086 268.01304874 65.625 273.625 C65.96402344 274.51445312 66.30304688 275.40390625 66.65234375 276.3203125 C67.58720809 278.74258358 67.58720809 278.74258358 69.3125 281.125 C70.625 283.625 70.625 283.625 70.5 286.1875 C69.57005824 288.77805206 68.40271189 290.53812083 66.625 292.625 C67.945 291.965 69.265 291.305 70.625 290.625 C70.315625 291.388125 70.00625 292.15125 69.6875 292.9375 C68.94606407 294.81289677 68.26271783 296.71184652 67.625 298.625 C69.275 296.645 70.925 294.665 72.625 292.625 C75.35190423 292.97337103 76.46986588 293.46580123 78.4140625 295.4609375 C80.58116065 298.45798813 82.64929839 301.49964443 84.625 304.625 C84.99367188 305.2034668 85.36234375 305.78193359 85.7421875 306.37792969 C93.36182144 318.70728565 97.77053372 332.17741469 102.46090698 345.79605103 C106.3735203 357.1022499 110.45186906 367.44356687 117.41796875 377.27734375 C121.60830468 383.24279557 123.46861552 389.39400984 122.625 396.625 C120.02558443 400.42414584 117.03720262 401.6067994 112.625 402.625 C108.15776961 403.21467441 105.31328923 402.95037309 101.1875 401 C98.625 398.625 98.625 398.625 97.375 395.875 C97.70696459 391.55946035 99.55375506 389.51885784 102.27734375 386.26171875 C103.73094045 384.84969402 103.73094045 384.84969402 103.625 383.625 C102.965 383.295 102.305 382.965 101.625 382.625 C101.625 381.965 101.625 381.305 101.625 380.625 C100.305 381.285 98.985 381.945 97.625 382.625 C96.33039648 380.03579296 96.07254767 377.6101093 95.625 374.75 C94.64025564 367.12507655 94.64025564 367.12507655 90.19140625 361.21484375 C88.28705511 359.28199858 86.66781404 357.20291843 85 355.0625 C82.33796293 351.66852807 79.57697965 348.4695923 76.5949707 345.35253906 C67.6624122 335.97528944 61.35541274 326.15098484 56.84887695 314.01586914 C54.4270659 307.69485195 50.75556168 302.91706738 46.625 297.625 C33.46161682 279.95263713 33.46161682 279.95263713 29.625 269.625 C30.285 268.965 30.945 268.305 31.625 267.625 C29.315 267.955 27.005 268.285 24.625 268.625 C23.965 270.275 23.305 271.925 22.625 273.625 C18.005 273.625 13.385 273.625 8.625 273.625 C8.955 272.305 9.285 270.985 9.625 269.625 C8.305 269.625 6.985 269.625 5.625 269.625 C5.57085937 268.65820312 5.51671875 267.69140625 5.4609375 266.6953125 C4.72983685 261.59813004 2.00129532 257.75392583 -0.75 253.5 C-1.245 252.71496094 -1.74 251.92992187 -2.25 251.12109375 C-3.1996581 249.61535243 -4.15353533 248.11226094 -5.11230469 246.61230469 C-6.57623524 244.30828406 -7.98727696 241.9756329 -9.375 239.625 C-9.024375 240.759375 -8.67375 241.89375 -8.3125 243.0625 C-8 245.24609375 -8 245.24609375 -8.375 247.625 C-11.00303556 251.06369976 -14.07136544 253.84299195 -17.375 256.625 C-16.385 256.955 -15.395 257.285 -14.375 257.625 C-14.375 258.945 -14.375 260.265 -14.375 261.625 C-13.055 261.625 -11.735 261.625 -10.375 261.625 C-10.375 265.585 -10.375 269.545 -10.375 273.625 C-18.625 273.955 -26.875 274.285 -35.375 274.625 C-36.035 276.605 -36.695 278.585 -37.375 280.625 C-38.32247629 282.38349539 -39.32224644 284.11493489 -40.375 285.8125 C-40.890625 286.65167969 -41.40625 287.49085938 -41.9375 288.35546875 C-43.05968569 290.12718039 -44.21168076 291.88002114 -45.375 293.625 C-45.045 293.955 -44.715 294.285 -44.375 294.625 C-43.28714934 303.28649447 -44.63680349 310.80991808 -47.125 319.0625 C-47.37709229 319.90208252 -47.62918457 320.74166504 -47.88891602 321.60668945 C-50.02161932 328.28543571 -52.66218822 333.79640341 -57.375 339.07421875 C-60.47854899 342.57838289 -62.45733548 346.18819256 -64.375 350.4375 C-64.70894775 351.16018066 -65.04289551 351.88286133 -65.38696289 352.62744141 C-69.0348367 360.73788956 -71.73921082 369.14304865 -74.375 377.625 C-74.705 378.615 -75.035 379.605 -75.375 380.625 C-75.045 381.615 -74.715 382.605 -74.375 383.625 C-74.25759878 385.309571 -74.19993455 386.99888877 -74.1875 388.6875 C-74.17332031 389.56535156 -74.15914062 390.44320313 -74.14453125 391.34765625 C-74.375 393.625 -74.375 393.625 -76.375 395.625 C-89.02064581 399.24832546 -104.44566625 397.73777156 -117.4375 397.8125 C-118.65638916 397.82547119 -119.87527832 397.83844238 -121.13110352 397.85180664 C-122.27506592 397.85301514 -123.41902832 397.85422363 -124.59765625 397.85546875 C-125.61609619 397.85957764 -126.63453613 397.86368652 -127.68383789 397.86791992 C-130.41057862 397.62178847 -132.04841618 397.02413882 -134.375 395.625 C-133.77474412 392.01586652 -133.47582374 391.70113221 -130.3125 389.3125 C-126.22109005 386.90622113 -121.92284237 385.09896072 -117.5625 383.25 C-106.11482048 378.35426206 -96.13428016 373.05671214 -90.3046875 361.50390625 C-88.89837747 357.14907226 -88.28297583 352.69947989 -87.5625 348.1875 C-86.18125736 339.95803527 -84.6664315 331.77563158 -82.875 323.625 C-82.68574951 322.72467041 -82.49649902 321.82434082 -82.30151367 320.89672852 C-81.07190443 315.44410437 -79.30185147 311.37815919 -76.375 306.625 C-75.53709672 304.51607098 -75.53709672 304.51607098 -75.125 302.6875 C-74.75375 301.1715625 -74.75375 301.1715625 -74.375 299.625 C-70.415 301.935 -66.455 304.245 -62.375 306.625 C-63.509375 305.67625 -64.64375 304.7275 -65.8125 303.75 C-69.25 300.875 -69.25 300.875 -70.375 298.625 C-68.065 299.285 -65.755 299.945 -63.375 300.625 C-63.92929688 300.15449219 -64.48359375 299.68398438 -65.0546875 299.19921875 C-66.14136719 298.26529297 -66.14136719 298.26529297 -67.25 297.3125 C-68.32894531 296.39017578 -68.32894531 296.39017578 -69.4296875 295.44921875 C-71.375 293.625 -71.375 293.625 -73.375 290.625 C-72.98334135 283.18348558 -70.74401337 276.25288542 -68.125 269.3125 C-67.0890907 265.60049169 -67.90009397 263.09585183 -69.05859375 259.5078125 C-69.51336162 255.36437188 -68.33166791 252.00821737 -67.125 248.0625 C-66.64540007 246.43931381 -66.16753455 244.81561416 -65.69140625 243.19140625 C-65.45953613 242.40523926 -65.22766602 241.61907227 -64.98876953 240.80908203 C-64.21736125 238.06404684 -63.64221369 235.29107188 -63.0625 232.5 C-61.18114822 224.66653527 -57.13521745 217.69016194 -53.375 210.625 C-53.045 209.965 -52.715 209.305 -52.375 208.625 C-51.4675 208.934375 -50.56 209.24375 -49.625 209.5625 C-47.23682795 210.34324855 -44.81253666 211.01561584 -42.375 211.625 C-45.345 209.645 -48.315 207.665 -51.375 205.625 C-50.92163921 200.75137153 -49.6660841 198.23457611 -46.375 194.625 C-43.61223823 195.14768466 -41.0489124 195.73369587 -38.375 196.625 C-40.59428194 193.71697539 -42.30469143 191.67187238 -45.375 189.625 C-45.03378916 187.1000398 -44.67995617 185.10934216 -43.3125 182.9375 C-40.78899169 181.22802663 -38.33730406 180.80729129 -35.3828125 180.1640625 C-32.72457408 179.45037203 -30.63086132 178.17590466 -28.375 176.625 C-29.1175 176.975625 -29.86 177.32625 -30.625 177.6875 C-33.5072726 178.67009293 -34.58676345 178.6576802 -37.375 177.625 C-36.385 176.635 -35.395 175.645 -34.375 174.625 C-36.685 174.955 -38.995 175.285 -41.375 175.625 C-41.06843615 169.00322074 -39.63211277 164.40374846 -36.375 158.625 C-32.98608678 159.31386787 -30.19488387 160.61216486 -27.125 162.1875 C-26.23296875 162.64253906 -25.3409375 163.09757813 -24.421875 163.56640625 C-23.40867188 164.09041016 -23.40867188 164.09041016 -22.375 164.625 C-25.49301803 161.24714713 -28.97570341 158.60036578 -32.66796875 155.89453125 C-34.375 154.625 -34.375 154.625 -35.375 153.625 C-35.60787008 151.94316052 -35.78764166 150.2537584 -35.9375 148.5625 C-36.02128906 147.64339844 -36.10507813 146.72429687 -36.19140625 145.77734375 C-36.25199219 145.06707031 -36.31257812 144.35679687 -36.375 143.625 C-36.41496094 144.3778125 -36.45492187 145.130625 -36.49609375 145.90625 C-37.98472451 161.04985179 -47.25562851 174.58274183 -57.375 185.625 C-59.99762636 187.70779889 -62.36615936 189.12057968 -65.375 190.625 C-63.395 190.295 -61.415 189.965 -59.375 189.625 C-65.52534169 199.21953303 -65.52534169 199.21953303 -69.375 202.625 C-70.365 202.295 -71.355 201.965 -72.375 201.625 C-72.375 202.615 -72.375 203.605 -72.375 204.625 C-72.705 205.285 -73.035 205.945 -73.375 206.625 C-74.035 206.625 -74.695 206.625 -75.375 206.625 C-75.33375 207.718125 -75.2925 208.81125 -75.25 209.9375 C-75.375 213.625 -75.375 213.625 -77.375 216.625 C-77.73851504 218.65042148 -77.73851504 218.65042148 -77.7890625 220.85546875 C-77.84707031 222.05913086 -77.84707031 222.05913086 -77.90625 223.28710938 C-77.9371875 224.12048828 -77.968125 224.95386719 -78 225.8125 C-78.05800781 227.0799707 -78.05800781 227.0799707 -78.1171875 228.37304688 C-78.21136279 230.45667524 -78.29426675 232.54080753 -78.375 234.625 C-80.296875 233.9453125 -80.296875 233.9453125 -82.375 232.625 C-83.203125 230.2421875 -83.203125 230.2421875 -83.625 227.5 C-83.77453125 226.58992187 -83.9240625 225.67984375 -84.078125 224.7421875 C-84.17609375 224.04351562 -84.2740625 223.34484375 -84.375 222.625 C-84.48457031 223.43324219 -84.59414062 224.24148438 -84.70703125 225.07421875 C-84.86558594 226.14285156 -85.02414063 227.21148437 -85.1875 228.3125 C-85.33832031 229.36824219 -85.48914063 230.42398438 -85.64453125 231.51171875 C-86.39891759 234.72693753 -87.53374987 236.90600323 -89.375 239.625 C-90.035 239.295 -90.695 238.965 -91.375 238.625 C-91.375 237.635 -91.375 236.645 -91.375 235.625 C-131.965 235.625 -172.555 235.625 -214.375 235.625 C-214.375 231.005 -214.375 226.385 -214.375 221.625 C-213.03164581 221.64133987 -211.68829163 221.65767975 -210.30422974 221.67451477 C-197.62191556 221.82024865 -184.94078431 221.89718707 -172.25761604 221.90740681 C-165.7373146 221.91485476 -159.21898582 221.9462265 -152.69921875 222.03295898 C-146.40260902 222.1158313 -140.10868693 222.1349625 -133.81161118 222.11058617 C-131.41383294 222.11237314 -129.01595735 222.13682624 -126.61865616 222.18468666 C-113.21150966 223.05577894 -113.21150966 223.05577894 -101.61859131 217.66610718 C-97.31459167 212.66406046 -97.31459167 212.66406046 -95.375 206.625 C-98.345 206.295 -101.315 205.965 -104.375 205.625 C-104.705 204.635 -105.035 203.645 -105.375 202.625 C-103.23570764 202.1496017 -101.09640287 201.67426032 -98.95703125 201.19921875 C-97.28751293 200.82793404 -95.61822542 200.45560923 -93.94921875 200.08203125 C-90.09851777 199.22128633 -86.24924307 198.3748535 -82.375 197.625 C-83.365 196.965 -84.355 196.305 -85.375 195.625 C-84.625 190.875 -84.625 190.875 -82.375 188.625 C-79.75 188.5 -79.75 188.5 -77.375 188.625 C-77.375 187.965 -77.375 187.305 -77.375 186.625 C-78.365 186.295 -79.355 185.965 -80.375 185.625 C-80.045 185.295 -79.715 184.965 -79.375 184.625 C-79.2146444 181.59692956 -79.11539552 178.58914546 -79.05859375 175.55859375 C-79.0274221 174.19565941 -79.0274221 174.19565941 -78.99562073 172.80519104 C-78.93002328 169.89104054 -78.8711932 166.97679696 -78.8125 164.0625 C-78.76932446 162.09178709 -78.72571049 160.12108374 -78.68164062 158.15039062 C-78.57433157 153.30869012 -78.47309325 148.46689563 -78.375 143.625 C-82.995 143.625 -87.615 143.625 -92.375 143.625 C-92.375 142.305 -92.375 140.985 -92.375 139.625 C-93.365 139.625 -94.355 139.625 -95.375 139.625 C-95.375 135.665 -95.375 131.705 -95.375 127.625 C-81.515 127.295 -67.655 126.965 -53.375 126.625 C-54.035 126.295 -54.695 125.965 -55.375 125.625 C-55.045 121.665 -54.715 117.705 -54.375 113.625 C-53.385 113.625 -52.395 113.625 -51.375 113.625 C-52.1175 112.8825 -52.1175 112.8825 -52.875 112.125 C-54.99013269 108.59977885 -54.72824866 105.58138499 -54.375 101.625 C-54.25318359 100.18640625 -54.25318359 100.18640625 -54.12890625 98.71875 C-52.86343471 88.38624012 -48.30065717 82.71999335 -40.4609375 76.171875 C-37.35534744 73.86885316 -34.11869221 71.69462635 -30.375 70.625 C-27.66077053 71.02805287 -26.23740479 71.71099701 -23.875 73.1875 C-21.2776988 74.95731408 -21.2776988 74.95731408 -17.375 74.625 C-19.025 73.635 -20.675 72.645 -22.375 71.625 C-22.045 69.975 -21.715 68.325 -21.375 66.625 C-17.415 65.305 -13.455 63.985 -9.375 62.625 C-16.2063253 64.90210843 -16.2063253 64.90210843 -20.625 64.875 C-21.47578125 64.88015625 -22.3265625 64.8853125 -23.203125 64.890625 C-25.375 64.625 -25.375 64.625 -27.375 62.625 C-27.77264263 60.63678687 -28.11275349 58.63555661 -28.375 56.625 C-27.385 56.295 -26.395 55.965 -25.375 55.625 C-25.375 54.635 -25.375 53.645 -25.375 52.625 C-26.695 52.625 -28.015 52.625 -29.375 52.625 C-29.705 51.635 -30.035 50.645 -30.375 49.625 C-31.365 48.965 -32.355 48.305 -33.375 47.625 C-33.70833333 46.29166667 -34.04166667 44.95833333 -34.375 43.625 C-35.365 42.965 -36.355 42.305 -37.375 41.625 C-37.024375 40.408125 -36.67375 39.19125 -36.3125 37.9375 C-35.27106809 33.77910639 -35.5746887 30.96190899 -36.9609375 26.9140625 C-38.12102782 20.50073301 -36.41307036 12.90076963 -33.75 7.0625 C-24.50391838 -2.42689956 -12.27982946 -5.41352382 0 0 Z " fill="#212121" transform="translate(258.375,55.375)"/>
<path d="M0 0 C4.73136812 1.53769464 9.33012698 3.24879762 14 5 C14 19.52 14 34.04 14 49 C21.92 49 29.84 49 38 49 C38 50.32 38 51.64 38 53 C39.32 53 40.64 53 42 53 C42 56.96 42 60.92 42 65 C29.625 65.495 29.625 65.495 17 66 C16.34 67.98 15.68 69.96 15 72 C14.05252371 73.75849539 13.05275356 75.48993489 12 77.1875 C11.484375 78.02667969 10.96875 78.86585938 10.4375 79.73046875 C9.31531431 81.50218039 8.16331924 83.25502114 7 85 C7.33 85.33 7.66 85.66 8 86 C9.08785066 94.66149447 7.73819651 102.18491808 5.25 110.4375 C4.87186157 111.69687378 4.87186157 111.69687378 4.48608398 112.98168945 C2.35338068 119.66043571 -0.28718822 125.17140341 -5 130.44921875 C-8.10354899 133.95338289 -10.08233548 137.56319256 -12 141.8125 C-12.33394775 142.53518066 -12.66789551 143.25786133 -13.01196289 144.00244141 C-16.6598367 152.11288956 -19.36421082 160.51804865 -22 169 C-22.33 169.99 -22.66 170.98 -23 172 C-22.67 172.99 -22.34 173.98 -22 175 C-21.88259878 176.684571 -21.82493455 178.37388877 -21.8125 180.0625 C-21.79832031 180.94035156 -21.78414062 181.81820312 -21.76953125 182.72265625 C-22 185 -22 185 -24 187 C-36.64564581 190.62332546 -52.07066625 189.11277156 -65.0625 189.1875 C-66.89083374 189.20695679 -66.89083374 189.20695679 -68.75610352 189.22680664 C-69.90006592 189.22801514 -71.04402832 189.22922363 -72.22265625 189.23046875 C-73.24109619 189.23457764 -74.25953613 189.23868652 -75.30883789 189.24291992 C-78.03557862 188.99678847 -79.67341618 188.39913882 -82 187 C-81.39974412 183.39086652 -81.10082374 183.07613221 -77.9375 180.6875 C-73.84609005 178.28122113 -69.54784237 176.47396072 -65.1875 174.625 C-53.73982048 169.72926206 -43.75928016 164.43171214 -37.9296875 152.87890625 C-36.52337747 148.52407226 -35.90797583 144.07447989 -35.1875 139.5625 C-33.80625736 131.33303527 -32.2914315 123.15063158 -30.5 115 C-30.31074951 114.09967041 -30.12149902 113.19934082 -29.92651367 112.27172852 C-28.69690443 106.81910437 -26.92685147 102.75315919 -24 98 C-23.16209672 95.89107098 -23.16209672 95.89107098 -22.75 94.0625 C-22.5025 93.051875 -22.255 92.04125 -22 91 C-16.06 94.465 -16.06 94.465 -10 98 C-11.7015625 96.576875 -11.7015625 96.576875 -13.4375 95.125 C-16.875 92.25 -16.875 92.25 -18 90 C-15.69 90.66 -13.38 91.32 -11 92 C-11.55429688 91.52949219 -12.10859375 91.05898438 -12.6796875 90.57421875 C-13.76636719 89.64029297 -13.76636719 89.64029297 -14.875 88.6875 C-15.95394531 87.76517578 -15.95394531 87.76517578 -17.0546875 86.82421875 C-19 85 -19 85 -21 82 C-20.60834135 74.55848558 -18.36901337 67.62788542 -15.75 60.6875 C-14.7140907 56.97549169 -15.52509397 54.47085183 -16.68359375 50.8828125 C-17.13836162 46.73937188 -15.95666791 43.38321737 -14.75 39.4375 C-14.27040007 37.81431381 -13.79253455 36.19061416 -13.31640625 34.56640625 C-13.08453613 33.78023926 -12.85266602 32.99407227 -12.61376953 32.18408203 C-11.84236125 29.43904684 -11.26721369 26.66607188 -10.6875 23.875 C-8.80614822 16.04153527 -4.76021745 9.06516194 -1 2 C-0.67 1.34 -0.34 0.68 0 0 Z " fill="#212121" transform="translate(206,264)"/>
<path d="M0 0 C4.62 0 9.24 0 14 0 C14.79434448 2.03522827 14.79434448 2.03522827 15.60473633 4.11157227 C17.57720767 9.16443521 19.55119641 14.21670422 21.52563477 19.26879883 C22.37858556 21.45190624 23.23112947 23.63517266 24.08325195 25.81860352 C25.31093096 28.96412783 26.54009117 32.10906991 27.76953125 35.25390625 C28.14777542 36.2239711 28.52601959 37.19403595 28.91572571 38.1934967 C30.46661867 42.15710666 32.02677386 46.09836059 33.7644043 49.98413086 C35 53 35 53 35 56 C31.37 56 27.74 56 24 56 C24.495 57.98 24.495 57.98 25 60 C25.86882812 59.88398438 26.73765625 59.76796875 27.6328125 59.6484375 C31.30201704 59.36113961 34.38128606 59.29255 38 60 C41.11786532 62.86167708 42.84932778 65.93705942 44 70 C43.61081182 73.88060101 42.52280722 76.03844369 40 79 C41.98 78.01 41.98 78.01 44 77 C43.5359375 78.1446875 43.5359375 78.1446875 43.0625 79.3125 C42.32106407 81.18789677 41.63771783 83.08684652 41 85 C42.65 83.02 44.3 81.04 46 79 C48.72690423 79.34837103 49.84486588 79.84080123 51.7890625 81.8359375 C53.95616065 84.83298813 56.02429839 87.87464443 58 91 C58.36867188 91.5784668 58.73734375 92.15693359 59.1171875 92.75292969 C66.73682144 105.08228565 71.14553372 118.55241469 75.83590698 132.17105103 C79.7485203 143.4772499 83.82686906 153.81856687 90.79296875 163.65234375 C94.98330468 169.61779557 96.84361552 175.76900984 96 183 C93.40058443 186.79914584 90.41220262 187.9817994 86 189 C81.53276961 189.58967441 78.68828923 189.32537309 74.5625 187.375 C72 185 72 185 70.75 182.25 C71.08196459 177.93446035 72.92875506 175.89385784 75.65234375 172.63671875 C77.10594045 171.22469402 77.10594045 171.22469402 77 170 C76.34 169.67 75.68 169.34 75 169 C75 168.34 75 167.68 75 167 C73.02 167.99 73.02 167.99 71 169 C69.70539648 166.41079296 69.44754767 163.9851093 69 161.125 C68.01525564 153.50007655 68.01525564 153.50007655 63.56640625 147.58984375 C61.66205511 145.65699858 60.04281404 143.57791843 58.375 141.4375 C55.71296293 138.04352807 52.95197965 134.8445923 49.9699707 131.72753906 C41.0374122 122.35028944 34.73041274 112.52598484 30.22387695 100.39086914 C27.8020659 94.06985195 24.13056168 89.29206738 20 84 C6.83661682 66.32763713 6.83661682 66.32763713 3 56 C3.66 55.34 4.32 54.68 5 54 C1.535 54.495 1.535 54.495 -2 55 C-2.99 57.475 -2.99 57.475 -4 60 C-8.62 60 -13.24 60 -18 60 C-17.67 58.68 -17.34 57.36 -17 56 C-18.32 56 -19.64 56 -21 56 C-20.43206628 51.98924168 -19.56530047 48.48256846 -18.05053711 44.72900391 C-17.6501976 43.72841949 -17.24985809 42.72783508 -16.83738708 41.69692993 C-16.18891563 40.10284805 -16.18891563 40.10284805 -15.52734375 38.4765625 C-15.0848378 37.37524994 -14.64233185 36.27393738 -14.18641663 35.13925171 C-12.77577309 31.63218912 -11.35676101 28.12858287 -9.9375 24.625 C-8.97796136 22.24371285 -8.01897058 19.86220486 -7.06054688 17.48046875 C-4.71337404 11.65106693 -2.35869158 5.82475009 0 0 Z " fill="#212121" transform="translate(285,269)"/>
<path d="M0 0 C15.84 0 31.68 0 48 0 C48 1.32 48 2.64 48 4 C48.99 4 49.98 4 51 4 C51.33 7.96 51.66 11.92 52 16 C45.73 16 39.46 16 33 16 C33.33 17.65 33.66 19.3 34 21 C34.0800668 22.41140468 34.11801322 23.82583519 34.11352539 25.23950195 C34.11344986 26.03995438 34.11337433 26.8404068 34.11329651 27.66511536 C34.10813522 28.5142601 34.10297394 29.36340485 34.09765625 30.23828125 C34.09553383 31.55943184 34.09553383 31.55943184 34.09336853 32.90727234 C34.08778937 35.70905003 34.07524071 38.51074662 34.0625 41.3125 C34.05748231 43.21679572 34.05291987 45.12109269 34.04882812 47.02539062 C34.03782677 51.68362481 34.02057649 56.34179867 34 61 C32.68 61.66 31.36 62.32 30 63 C32.97 62.505 32.97 62.505 36 62 C29.84965831 71.59453303 29.84965831 71.59453303 26 75 C25.01 74.67 24.02 74.34 23 74 C23 74.99 23 75.98 23 77 C22.67 77.66 22.34 78.32 22 79 C21.34 79 20.68 79 20 79 C20.04125 80.093125 20.0825 81.18625 20.125 82.3125 C20 86 20 86 18 89 C17.63648496 91.02542148 17.63648496 91.02542148 17.5859375 93.23046875 C17.52792969 94.43413086 17.52792969 94.43413086 17.46875 95.66210938 C17.4378125 96.49548828 17.406875 97.32886719 17.375 98.1875 C17.33632812 99.03248047 17.29765625 99.87746094 17.2578125 100.74804688 C17.16363721 102.83167524 17.08073325 104.91580753 17 107 C15.078125 106.3203125 15.078125 106.3203125 13 105 C12.171875 102.6171875 12.171875 102.6171875 11.75 99.875 C11.52570313 98.50988281 11.52570313 98.50988281 11.296875 97.1171875 C11.19890625 96.41851562 11.1009375 95.71984375 11 95 C10.89042969 95.80824219 10.78085938 96.61648438 10.66796875 97.44921875 C10.50941406 98.51785156 10.35085937 99.58648437 10.1875 100.6875 C9.96126953 102.27111328 9.96126953 102.27111328 9.73046875 103.88671875 C8.97608241 107.10193753 7.84125013 109.28100323 6 112 C5.34 111.67 4.68 111.34 4 111 C4 110.01 4 109.02 4 108 C-36.59 108 -77.18 108 -119 108 C-119 103.38 -119 98.76 -119 94 C-117.65664581 94.01633987 -116.31329163 94.03267975 -114.92922974 94.04951477 C-102.24691556 94.19524865 -89.56578431 94.27218707 -76.88261604 94.28240681 C-70.3623146 94.28985476 -63.84398582 94.3212265 -57.32421875 94.40795898 C-51.02760902 94.4908313 -44.73368693 94.5099625 -38.43661118 94.48558617 C-36.03883294 94.48737314 -33.64095735 94.51182624 -31.24365616 94.55968666 C-17.83650966 95.43077894 -17.83650966 95.43077894 -6.24359131 90.04110718 C-1.93959167 85.03906046 -1.93959167 85.03906046 0 79 C-2.97 78.67 -5.94 78.34 -9 78 C-9.33 77.01 -9.66 76.02 -10 75 C-7.86070764 74.5246017 -5.72140287 74.04926032 -3.58203125 73.57421875 C-1.91251293 73.20293404 -0.24322542 72.83060923 1.42578125 72.45703125 C5.27648223 71.59628633 9.12575693 70.7498535 13 70 C12.01 69.34 11.02 68.68 10 68 C10.75 63.25 10.75 63.25 13 61 C15.625 60.875 15.625 60.875 18 61 C18 60.34 18 59.68 18 59 C17.01 58.67 16.02 58.34 15 58 C15.33 57.67 15.66 57.34 16 57 C16.1603556 53.97192956 16.25960448 50.96414546 16.31640625 47.93359375 C16.3475779 46.57065941 16.3475779 46.57065941 16.37937927 45.18019104 C16.44497672 42.26604054 16.5038068 39.35179696 16.5625 36.4375 C16.60567554 34.46678709 16.64928951 32.49608374 16.69335938 30.52539062 C16.80066843 25.68369012 16.90190675 20.84189563 17 16 C12.38 16 7.76 16 3 16 C3 14.68 3 13.36 3 12 C2.01 12 1.02 12 0 12 C0 8.04 0 4.08 0 0 Z " fill="#232521" transform="translate(163,183)"/>
<path d="M0 0 C7.92203126 4.70283128 12.71908149 10.32361301 15.2109375 19.3125 C16.70764115 29.25244025 14.89928496 37.03854006 9.2109375 45.3125 C4.02657147 51.56905852 -3.25934535 54.85901876 -11.26171875 55.66015625 C-20.87349175 55.89659559 -28.1353126 54.46877709 -35.7890625 48.3125 C-42.43612222 41.01536109 -45.39811339 33.93553521 -45.0703125 24.046875 C-44.27853292 16.34901798 -41.32321993 9.7777675 -35.7890625 4.3125 C-25.13778336 -3.31925764 -12.23925837 -5.85532626 0 0 Z " fill="#5ADDE2" transform="translate(350.7890625,184.6875)"/>
<path d="M0 0 C4.929375 -0.0825 9.85875 -0.165 14.9375 -0.25 C16.47398193 -0.28641602 18.01046387 -0.32283203 19.59350586 -0.36035156 C26.94385628 -0.41974833 33.76405954 -0.43859812 40 4 C43.7187192 8.1263013 44.64295901 12.35142081 44.3984375 17.84375 C43.74807497 21.36335898 42.3431606 23.31225696 40 26 C39.34 26 38.68 26 38 26 C38 26.66 38 27.32 38 28 C38.598125 28.268125 39.19625 28.53625 39.8125 28.8125 C42.64062129 30.34776584 44.49111277 31.70465068 45.6875 34.75 C46.47271464 40.40354539 46.40115703 44.56668793 43.34375 49.42578125 C40.34778067 52.93559416 36.31874142 54.56041953 32 56 C29.55919472 56.08452927 27.14717652 56.11613448 24.70703125 56.09765625 C23.41514893 56.09515869 22.1232666 56.09266113 20.79223633 56.09008789 C19.14892334 56.08098389 17.50561035 56.07187988 15.8125 56.0625 C7.9853125 56.0315625 7.9853125 56.0315625 0 56 C0 37.52 0 19.04 0 0 Z " fill="#F9F9F9" transform="translate(344,269)"/>
<path d="M0 0 C4.764375 -0.0825 9.52875 -0.165 14.4375 -0.25 C16.66391235 -0.30462402 16.66391235 -0.30462402 18.93530273 -0.36035156 C27.02324455 -0.42792819 34.39519444 -0.25085878 40.60717773 5.48364258 C45.18077306 10.66811953 45.34132527 15.28611776 45.28515625 21.9140625 C44.78283873 27.35010142 42.83085096 31.27684616 38.875 35 C37 36 37 36 35 36 C35.33322266 36.57032959 35.66644531 37.14065918 36.00976562 37.72827148 C37.50874624 40.29671712 39.00441398 42.86707636 40.5 45.4375 C41.02464844 46.33533203 41.54929687 47.23316406 42.08984375 48.15820312 C42.58613281 49.01220703 43.08242188 49.86621094 43.59375 50.74609375 C44.28500977 51.93223267 44.28500977 51.93223267 44.99023438 53.14233398 C46 55 46 55 46 56 C41.05 56 36.1 56 31 56 C30.45472656 54.85660156 29.90945313 53.71320313 29.34765625 52.53515625 C28.58769247 51.04337549 27.82587538 49.55253785 27.0625 48.0625 C26.70865234 47.30775391 26.35480469 46.55300781 25.99023438 45.77539062 C23.7853404 41.47177151 23.7853404 41.47177151 19.67529297 39.27294922 C16.90843112 38.91870347 16.90843112 38.91870347 13 39 C13 44.61 13 50.22 13 56 C8.71 56 4.42 56 0 56 C0 37.52 0 19.04 0 0 Z " fill="#5ADCE1" transform="translate(236,183)"/>
<path d="M0 0 C11 0 11 0 14.3125 2.71875 C15.24507681 3.95222802 16.13982922 5.21498103 17 6.5 C17.4856543 7.16330322 17.97130859 7.82660645 18.47167969 8.51000977 C20.02087223 10.6480255 21.51197644 12.81906174 23 15 C24.06637688 16.52046593 25.13408596 18.0399984 26.203125 19.55859375 C28.85654464 23.3393989 31.4203142 27.16441454 34 31 C34.33 20.77 34.66 10.54 35 0 C39.29 0 43.58 0 48 0 C48 18.48 48 36.96 48 56 C37 56 37 56 33.6875 53.0625 C32.75396958 51.73404011 31.85939968 50.37757646 31 49 C30.5143457 48.28972656 30.02869141 47.57945312 29.52832031 46.84765625 C28.51025111 45.35177149 27.50816154 43.84489931 26.52148438 42.328125 C24.53353247 39.28622683 22.45326815 36.31308959 20.37011719 33.3359375 C18.22306513 30.24024822 16.11538717 27.11741267 14 24 C13.67 34.56 13.34 45.12 13 56 C8.71 56 4.42 56 0 56 C0 37.52 0 19.04 0 0 Z " fill="#5ADCE1" transform="translate(46,183)"/>
<path d="M0 0 C40.92 0 81.84 0 124 0 C124 4.62 124 9.24 124 14 C83.08 14 42.16 14 0 14 C0 9.38 0 4.76 0 0 Z " fill="#BAF56D" transform="translate(44,143)"/>
<path d="M0 0 C4.62 0 9.24 0 14 0 C14.79434448 2.03522827 14.79434448 2.03522827 15.60473633 4.11157227 C17.57720767 9.16443521 19.55119641 14.21670422 21.52563477 19.26879883 C22.37858556 21.45190624 23.23112947 23.63517266 24.08325195 25.81860352 C25.31093096 28.96412783 26.54009117 32.10906991 27.76953125 35.25390625 C28.14777542 36.2239711 28.52601959 37.19403595 28.91572571 38.1934967 C30.46661867 42.15710666 32.02677386 46.09836059 33.7644043 49.98413086 C35 53 35 53 35 56 C30.71 56 26.42 56 22 56 C20.68 53.03 19.36 50.06 18 47 C10.74 47 3.48 47 -4 47 C-5.32 49.97 -6.64 52.94 -8 56 C-12.29 56 -16.58 56 -21 56 C-20.27287778 51.63726667 -19.64430864 48.67834972 -18.05053711 44.72900391 C-17.6501976 43.72841949 -17.24985809 42.72783508 -16.83738708 41.69692993 C-16.18891563 40.10284805 -16.18891563 40.10284805 -15.52734375 38.4765625 C-15.0848378 37.37524994 -14.64233185 36.27393738 -14.18641663 35.13925171 C-12.77577309 31.63218912 -11.35676101 28.12858287 -9.9375 24.625 C-8.97796136 22.24371285 -8.01897058 19.86220486 -7.06054688 17.48046875 C-4.71337404 11.65106693 -2.35869158 5.82475009 0 0 Z " fill="#FBFBFB" transform="translate(285,269)"/>
<path d="M0 0 C40.59 0 81.18 0 123 0 C123 4.29 123 8.58 123 13 C82.41 13 41.82 13 0 13 C0 8.71 0 4.42 0 0 Z " fill="#C1FF72" transform="translate(44,278)"/>
<path d="M0 0 C3.61333692 2.82057247 5.20599632 5.85814366 5.8125 10.375 C5.874375 11.57125 5.93625 12.7675 6 14 C1.94662628 14.34415437 -1.96069847 14.55601721 -6 14 C-7.36176581 12.01924973 -8.69593116 10.01920337 -10 8 C-13.71619695 7.32940807 -17.2772571 7.38545197 -21 8 C-23.34973818 9.89755144 -23.34973818 9.89755144 -23.125 13.125 C-23.063125 14.548125 -23.063125 14.548125 -23 16 C-22.14341797 16.23783203 -22.14341797 16.23783203 -21.26953125 16.48046875 C1.55499666 23.04841716 1.55499666 23.04841716 6.08984375 30.8828125 C7.89277189 35.07674835 7.75554925 39.68358553 6.34765625 44 C3.47009566 49.73042109 -1.00714877 52.00238292 -7 54 C-23.53153419 55.19623201 -23.53153419 55.19623201 -30 50 C-33.86600033 46.63640941 -36.2072842 43.73043739 -36.875 38.5625 C-36.91625 37.386875 -36.9575 36.21125 -37 35 C-32.71 35 -28.42 35 -24 35 C-23.34 36.98 -22.68 38.96 -22 41 C-19.11584117 42.44207941 -16.58278472 42.09394887 -13.375 42.0625 C-11.59222656 42.04896484 -11.59222656 42.04896484 -9.7734375 42.03515625 C-8.85820312 42.02355469 -7.94296875 42.01195312 -7 42 C-6.58274322 38.62599422 -6.58274322 38.62599422 -7 35 C-10.49686381 32.34521185 -14.1135909 31.26147121 -18.3125 30.125 C-24.72467566 28.21514474 -30.61838994 26.25875316 -34.67578125 20.70703125 C-37.01227425 15.9306606 -36.83706966 11.1802262 -36 6 C-33.77194165 1.48857688 -29.9543619 -1.86958428 -25.171875 -3.5625 C-16.42006923 -5.32545368 -7.72281294 -4.63081148 0 0 Z " fill="#F9F9F9" transform="translate(450,272)"/>
<path d="M0 0 C15.84 0 31.68 0 48 0 C48 3.96 48 7.92 48 12 C42.06 12 36.12 12 30 12 C30 26.52 30 41.04 30 56 C26.04 56 22.08 56 18 56 C18 41.48 18 26.96 18 12 C12.06 12 6.12 12 0 12 C0 8.04 0 4.08 0 0 Z " fill="#5BE0E5" transform="translate(163,183)"/>
<path d="M0 0 C4.29 0 8.58 0 13 0 C13 14.52 13 29.04 13 44 C20.92 44 28.84 44 37 44 C37 47.96 37 51.92 37 56 C24.79 56 12.58 56 0 56 C0 37.52 0 19.04 0 0 Z " fill="#FCFCFC" transform="translate(207,269)"/>
<path d="M0 0 C4.3966905 2.50611359 6.94280288 5.79462501 8.75 10.5 C9.86779889 16.16813064 8.76756538 20.78796706 5.95703125 25.7734375 C3.24310941 29.65548751 0.30651815 31.58025837 -4.25 32.5 C-10.19876479 33.28273221 -14.57873867 32.62019767 -19.51953125 29.109375 C-23.70175267 25.21981467 -25.43317542 20.64123728 -25.8125 15 C-25.54884402 9.91143951 -23.61097809 6.26940074 -20.25 2.5 C-14.35364464 -2.69405993 -7.08499972 -2.98877578 0 0 Z " fill="#222323" transform="translate(344.25,195.5)"/>
<path d="M0 0 C6.10677672 5.90321749 7.13496474 10.34334279 7.3125 18.6875 C7.21069001 27.54496931 5.35933834 33.80917155 -0.6875 40.375 C-4.66651509 44.07675792 -8.90369593 46.20685598 -14 48 C-13.7525 48.928125 -13.7525 48.928125 -13.5 49.875 C-12.79924683 54.25470729 -12.92265749 58.57428989 -13 63 C-14.485 62.505 -14.485 62.505 -16 62 C-15.57847656 62.45890625 -15.15695312 62.9178125 -14.72265625 63.390625 C-14.17480469 64.00421875 -13.62695312 64.6178125 -13.0625 65.25 C-12.51722656 65.85328125 -11.97195313 66.4565625 -11.41015625 67.078125 C-9.93787201 69.08467305 -9.42470811 70.57002449 -9 73 C-10.41569064 73.08167446 -11.83276805 73.13949698 -13.25 73.1875 C-14.43335938 73.23970703 -14.43335938 73.23970703 -15.640625 73.29296875 C-18 73 -18 73 -19.9453125 71.5234375 C-22.58020271 69.56981168 -24.37890574 69.57311849 -27.625 69.4375 C-32.79102384 69.20897616 -32.79102384 69.20897616 -35 67 C-35 66.01 -35 65.02 -35 64 C-34.21625 64.04125 -33.4325 64.0825 -32.625 64.125 C-29.83883881 64.28728734 -29.83883881 64.28728734 -28 62 C-28.66 61.67 -29.32 61.34 -30 61 C-31.2401949 57.90324828 -32.37833237 54.79722352 -33.4375 51.63476562 C-35.27389124 46.63841394 -37.28982034 44.75180282 -42 42 C-42.66 41.01 -43.32 40.02 -44 39 C-42.948125 39.433125 -42.948125 39.433125 -41.875 39.875 C-32.59054349 43.5080482 -23.18215799 44.91055577 -13.5625 41.375 C-5.76665424 37.68155832 -1.21224198 33.18634121 2.12109375 25.14453125 C4.42247336 16.91070643 4.06190016 9.4864277 0 2 C0 1.34 0 0.68 0 0 Z " fill="#212121" transform="translate(362,196)"/>
<path d="M0 0 C4.29 0 8.58 0 13 0 C13 18.48 13 36.96 13 56 C8.71 56 4.42 56 0 56 C0 37.52 0 19.04 0 0 Z " fill="#5ADCE1" transform="translate(124,183)"/>
<path d="M0 0 C4.50417753 0.05791085 7.54836059 0.58755993 11.3125 3.25 C14.48827502 6.84921169 14.83047026 10.26718167 14.66796875 14.90234375 C13.92249277 19.82576205 11.80742147 23.80037918 8.25 27.25 C6.3125 28.25 6.3125 28.25 3.3125 28.25 C2.18034922 25.25265117 1.05812531 22.25167493 -0.0625 19.25 C-0.37960937 18.41082031 -0.69671875 17.57164062 -1.0234375 16.70703125 C-2.9220125 11.60461094 -4.58374094 6.58685697 -5.6875 1.25 C-4.05737162 -0.38012838 -2.24312555 0.04023544 0 0 Z " fill="#010404" transform="translate(338.6875,197.75)"/>
<path d="M0 0 C0.99 0 1.98 0 3 0 C3.33 3.96 3.66 7.92 4 12 C-2.27 12 -8.54 12 -15 12 C-14.67 13.65 -14.34 15.3 -14 17 C-13.92024185 18.38078453 -13.88196947 19.76462628 -13.88647461 21.14770508 C-13.88655014 21.92813675 -13.88662567 22.70856842 -13.88670349 23.51264954 C-13.89186478 24.3399205 -13.89702606 25.16719147 -13.90234375 26.01953125 C-13.9037587 26.87810226 -13.90517365 27.73667328 -13.90663147 28.6212616 C-13.91220943 31.35171049 -13.92475786 34.08207607 -13.9375 36.8125 C-13.94251785 38.6686186 -13.94708026 40.5247385 -13.95117188 42.38085938 C-13.96217164 46.9206048 -13.97942107 51.4602883 -14 56 C-18.29 56 -22.58 56 -27 56 C-27 54.68 -27 53.36 -27 52 C-24.03 52 -21.06 52 -18 52 C-18 37.48 -18 22.96 -18 8 C-12.06 8 -6.12 8 0 8 C0 5.36 0 2.72 0 0 Z " fill="#2A5759" transform="translate(211,187)"/>
<path d="M0 0 C6.10677672 5.90321749 7.13496474 10.34334279 7.3125 18.6875 C7.21138441 27.48455635 5.34775883 33.77298603 -0.5625 40.375 C-8.09669682 47.22931534 -16.66358812 48.70369752 -26.62109375 48.38671875 C-33.05782204 47.65002962 -38.11492413 45.97484139 -42.625 41.25 C-43.07875 40.5075 -43.5325 39.765 -44 39 C-42.948125 39.433125 -42.948125 39.433125 -41.875 39.875 C-32.59054349 43.5080482 -23.18215799 44.91055577 -13.5625 41.375 C-5.76665424 37.68155832 -1.21224198 33.18634121 2.12109375 25.14453125 C4.42247336 16.91070643 4.06190016 9.4864277 0 2 C0 1.34 0 0.68 0 0 Z " fill="#255B5D" transform="translate(362,196)"/>
<path d="M0 0 C13.48539786 -0.40864842 13.48539786 -0.40864842 18 3 C19.56935594 6.13871188 19.35201103 8.53855822 19 12 C17.375 14.9375 17.375 14.9375 14 17 C9.2507486 17.41952617 4.7858301 17.22363692 0 17 C0 11.39 0 5.78 0 0 Z " fill="#222323" transform="translate(249,194)"/>
<path d="M0 0 C1.32 0 2.64 0 4 0 C4 18.48 4 36.96 4 56 C0.37 56 -3.26 56 -7 56 C-7.66 54.68 -8.32 53.36 -9 52 C-6.03 52 -3.06 52 0 52 C0 34.84 0 17.68 0 0 Z " fill="#255B5D" transform="translate(94,187)"/>
<path d="M0 0 C2 1.375 2 1.375 4 4 C4.72871821 8.54873576 4.57475615 12.60848511 2.8125 16.875 C-0.94415943 21.27935933 -4.43090173 23.4795032 -10 25 C-13.52685547 25.22705078 -13.52685547 25.22705078 -17.3671875 25.1953125 C-18.04677521 25.1924826 -18.72636292 25.18965271 -19.42654419 25.18673706 C-21.57621608 25.17562964 -23.72545614 25.15054391 -25.875 25.125 C-27.34113977 25.11495795 -28.80728614 25.10583425 -30.2734375 25.09765625 C-33.84909631 25.07572159 -37.42450594 25.04125814 -41 25 C-41 23.68 -41 22.36 -41 21 C-39.79839233 20.98598145 -39.79839233 20.98598145 -38.57250977 20.97167969 C-34.90190881 20.91761061 -31.23253238 20.8340326 -27.5625 20.75 C-26.30244141 20.73582031 -25.04238281 20.72164063 -23.74414062 20.70703125 C-16.5539703 20.51929834 -10.09996035 20.14486722 -4 16 C-0.04688351 11.62958443 0.41004723 7.48636749 0.140625 1.72265625 C0.09421875 1.15417969 0.0478125 0.58570313 0 0 Z " fill="#666666" transform="translate(389,304)"/>
<path d="M0 0 C2.58445773 -0.1081866 5.16437352 -0.18737237 7.75 -0.25 C8.47960937 -0.28351563 9.20921875 -0.31703125 9.9609375 -0.3515625 C13.55122326 -0.41684042 15.56549259 -0.32570949 18.48046875 1.859375 C20 4 20 4 20.5625 6.5 C20 9 20 9 17.953125 11.140625 C14.28349316 13.45113394 11.37180692 13.45821432 7.1875 13.25 C6.49462891 13.23195313 5.80175781 13.21390625 5.08789062 13.1953125 C3.39132336 13.14851064 1.69547524 13.07677624 0 13 C0 8.71 0 4.42 0 0 Z " fill="#050505" transform="translate(357,302)"/>
<path d="M0 0 C2.24893954 -0.10823773 4.49937575 -0.18569645 6.75 -0.25 C8.00296875 -0.29640625 9.2559375 -0.3428125 10.546875 -0.390625 C14 0 14 0 16.45703125 1.7890625 C18 4 18 4 17.9375 7.625 C17 11 17 11 14 13 C10.64453125 13.1953125 10.64453125 13.1953125 6.8125 13.125 C5.54019531 13.10695313 4.26789063 13.08890625 2.95703125 13.0703125 C1.49330078 13.03550781 1.49330078 13.03550781 0 13 C0 8.71 0 4.42 0 0 Z " fill="#080808" transform="translate(357,279)"/>
<path d="M0 0 C4.91724138 4.75862069 4.91724138 4.75862069 5.25 9.75 C5.14696431 15.44787357 3.26314985 18.76492015 -0.8125 22.75 C-7.72828281 27.63172904 -14.79555419 27.6619724 -23 27 C-27.76848611 25.88786107 -31.9173243 23.67925593 -36 21 C-35.67 20.34 -35.34 19.68 -35 19 C-34.154375 19.495 -33.30875 19.99 -32.4375 20.5 C-25.06944249 23.63630147 -15.21956856 23.28731742 -7.8125 20.4375 C-4.52439191 18.65075447 -2.24215127 16.60505784 -0.57421875 13.1484375 C0.57992229 8.83022271 0.28804504 4.42469179 0 0 Z " fill="#646464" transform="translate(456,303)"/>
<path d="M0 0 C0.99 0 1.98 0 3 0 C3 18.48 3 36.96 3 56 C-0.96 56 -4.92 56 -9 56 C-9 54.68 -9 53.36 -9 52 C-6.03 52 -3.06 52 0 52 C0 34.84 0 17.68 0 0 Z " fill="#24595B" transform="translate(137,187)"/>
<path d="M0 0 C3.32926829 1.78353659 3.32926829 1.78353659 4.5 4.125 C3.88125 3.96 3.2625 3.795 2.625 3.625 C-3.22644848 2.68876824 -8.43916812 2.13274762 -13.875 4.75 C-18.02590463 8.50558038 -20.34007948 10.81389051 -20.7421875 16.625 C-20.74926312 20.13450929 -20.67284519 23.62008369 -20.5 27.125 C-24.33962344 23.44316931 -25.60891322 20.1155255 -25.9375 14.8125 C-25.79794457 9.57917132 -23.95541875 6.00031774 -20.5 2.125 C-14.43999456 -3.21321819 -7.11586287 -3.38608143 0 0 Z " fill="#3A7274" transform="translate(344.5,195.875)"/>
<path d="M0 0 C1.32 0 2.64 0 4 0 C4 3.96 4 7.92 4 12 C-8.54 12 -21.08 12 -34 12 C-34 10.68 -34 9.36 -34 8 C-22.78 8 -11.56 8 0 8 C0 5.36 0 2.72 0 0 Z " fill="#646464" transform="translate(244,317)"/>
<path d="M0 0 C7.26 0 14.52 0 22 0 C22.495 1.98 22.495 1.98 23 4 C16.4 4 9.8 4 3 4 C2.01 7.3 1.02 10.6 0 14 C-4.62 14 -9.24 14 -14 14 C-13.67 12.68 -13.34 11.36 -13 10 C-12.39671875 10.03222656 -11.7934375 10.06445312 -11.171875 10.09765625 C-8.33280815 10.13884638 -8.33280815 10.13884638 -4 9 C-2.68 6.03 -1.36 3.06 0 0 Z " fill="#858585" transform="translate(281,315)"/>
<path d="M0 0 C0.66 0 1.32 0 2 0 C8.08547672 14.51879401 14.10344133 29.05401716 19.75 43.75 C20.39461182 45.42618408 20.39461182 45.42618408 21.05224609 47.13623047 C24 54.86175651 24 54.86175651 24 56 C19.38 56 14.76 56 10 56 C9.67 54.68 9.34 53.36 9 52 C12.63 52 16.26 52 20 52 C19.57178955 50.92218262 19.1435791 49.84436523 18.70239258 48.73388672 C17.08782989 44.6681126 15.47645987 40.60107906 13.8659668 36.53369141 C13.17345423 34.7859598 12.48011899 33.0385539 11.78588867 31.29150391 C7.66656992 20.92331246 3.65325479 10.54271621 0 0 Z " fill="#707070" transform="translate(300,273)"/>
<path d="M0 0 C0.66 0 1.32 0 2 0 C3.00605593 2.60197202 4.00502525 5.20629362 5 7.8125 C5.28617187 8.55048828 5.57234375 9.28847656 5.8671875 10.04882812 C6.13789063 10.76103516 6.40859375 11.47324219 6.6875 12.20703125 C7.06455078 13.18893433 7.06455078 13.18893433 7.44921875 14.19067383 C8 16 8 16 8 19 C3.38 19 -1.24 19 -6 19 C-4.70024676 12.28460827 -2.70071112 6.27980887 0 0 Z " fill="#808080" transform="translate(291,286)"/>
<path d="M0 0 C4.17232487 1.39077496 5.03340282 4.33052556 7 8 C9.77169396 12.9494535 12.55176124 15.29104785 17.390625 18.01953125 C17.92171875 18.34308594 18.4528125 18.66664063 19 19 C19 19.33 19 19.66 19 20 C17.35 20.33 15.7 20.66 14 21 C14.515625 21.94875 15.03125 22.8975 15.5625 23.875 C16.036875 24.90625 16.51125 25.9375 17 27 C16.67 27.66 16.34 28.32 16 29 C14.66094733 27.2126038 13.32890934 25.41995047 12 23.625 C10.88625 22.12839844 10.88625 22.12839844 9.75 20.6015625 C8 18 8 18 8 16 C7.34773438 16.28875 6.69546875 16.5775 6.0234375 16.875 C1.20758165 18.92067328 -2.6591018 20.56219981 -8 20 C-5.49028144 18.69494635 -3.01285708 17.60854677 -0.375 16.5625 C3.20148477 15.26328962 3.20148477 15.26328962 5 12 C3.75863281 11.58621094 3.75863281 11.58621094 2.4921875 11.1640625 C-3.671875 9.109375 -9.8359375 7.0546875 -16 5 C-16 4.67 -16 4.34 -16 4 C-9.16018724 4.51621228 -3.36123316 6.48590969 3 9 C2.690625 8.071875 2.38125 7.14375 2.0625 6.1875 C1.375 4.125 0.6875 2.0625 0 0 Z " fill="#050505" transform="translate(279,155)"/>
<path d="M0 0 C0.33 0 0.66 0 1 0 C1.33 4.62 1.66 9.24 2 14 C2.33 14 2.66 14 3 14 C3 25.22 3 36.44 3 48 C-0.96 48 -4.92 48 -9 48 C-9 46.68 -9 45.36 -9 44 C-6.03 44 -3.06 44 0 44 C0 29.48 0 14.96 0 0 Z " fill="#387173" transform="translate(193,195)"/>
<path d="M0 0 C1.65 1.65 3.3 3.3 5 5 C4.67 5.66 4.34 6.32 4 7 C3.84504237 9.24974161 3.74989072 11.50371536 3.68359375 13.7578125 C3.66281265 14.42086395 3.64203156 15.08391541 3.62062073 15.76705933 C3.55520769 17.88626694 3.49627895 20.005599 3.4375 22.125 C3.39430691 23.56121081 3.35069236 24.99740902 3.30664062 26.43359375 C3.19953501 29.95559594 3.09824425 33.47773825 3 37 C-0.96 37 -4.92 37 -9 37 C-9 35.68 -9 34.36 -9 33 C-6.03 33 -3.06 33 0 33 C0 22.11 0 11.22 0 0 Z " fill="#255A5C" transform="translate(59,206)"/>
<path d="M0 0 C2.97 0 5.94 0 9 0 C9.66 1.32 10.32 2.64 11 4 C8.69 4 6.38 4 4 4 C4 9.61 4 15.22 4 21 C-0.29 21 -4.58 21 -9 21 C-9 19.68 -9 18.36 -9 17 C-6.03 17 -3.06 17 0 17 C0 11.39 0 5.78 0 0 Z " fill="#37686A" transform="translate(249,222)"/>
<path d="M0 0 C3.04297179 2.84665103 4.76359852 4.69508558 5.203125 8.98046875 C5.31928967 14.44988844 4.83469487 19.21972119 2 24 C0.12354585 25.92649293 -1.82797921 27.38253771 -4 29 C-4.66 29.99 -5.32 30.98 -6 32 C-9 27.25 -9 27.25 -9 25 C-8.2575 24.62875 -7.515 24.2575 -6.75 23.875 C-2.85135581 21.21683351 -1.24585189 18.54089187 0 14 C0.31724269 9.31185808 0.237158 4.69045828 0 0 Z " fill="#396E70" transform="translate(280,194)"/>
<path d="M0 0 C13.44256162 -0.40735035 13.44256162 -0.40735035 18 3 C18 3.33 18 3.66 18 4 C13.38 4 8.76 4 4 4 C4 7.96 4 11.92 4 16 C7.3 16 10.6 16 14 16 C14 16.33 14 16.66 14 17 C9.38 17 4.76 17 0 17 C0 11.39 0 5.78 0 0 Z " fill="#37696B" transform="translate(249,194)"/>
<path d="M0 0 C38.61 0 77.22 0 117 0 C116.67 0.99 116.34 1.98 116 3 C115.43761753 2.83826325 114.87523506 2.67652651 114.2958107 2.50988865 C111.8817816 1.97374425 109.73831103 1.86117509 107.26702881 1.84178162 C106.3191449 1.8319928 105.37126099 1.82220398 104.39465332 1.81211853 C103.36175171 1.80636307 102.3288501 1.8006076 101.26464844 1.79467773 C99.62517242 1.77982834 99.62517242 1.77982834 97.95257568 1.76467896 C94.33819753 1.73307976 90.72380622 1.70831264 87.109375 1.68359375 C84.60402077 1.66302287 82.09866999 1.64202636 79.59332275 1.62062073 C73.67193023 1.57105734 67.75051473 1.52578838 61.82907319 1.48259836 C54.42507519 1.42833179 47.02113457 1.36740044 39.6171875 1.30664062 C26.41149738 1.19907608 13.20576849 1.09744203 0 1 C0 0.67 0 0.34 0 0 Z " fill="#0E1209" transform="translate(44,291)"/>
<path d="M0 0 C0.99 0 1.98 0 3 0 C3 13.2 3 26.4 3 40 C2.01 40 1.02 40 0 40 C0 26.8 0 13.6 0 0 Z " fill="#797979" transform="translate(220,273)"/>
<path d="M0 0 C2.60444348 -0.05394705 5.20776998 -0.09364469 7.8125 -0.125 C8.55048828 -0.14175781 9.28847656 -0.15851563 10.04882812 -0.17578125 C13.91246426 -0.21074628 15.70903668 -0.19397555 19 2 C19 2.66 19 3.32 19 4 C14.05 4 9.1 4 4 4 C4 6.64 4 9.28 4 12 C7.63 12 11.26 12 15 12 C15 12.33 15 12.66 15 13 C10.05 13 5.1 13 0 13 C0 8.71 0 4.42 0 0 Z " fill="#5A5A5A" transform="translate(357,302)"/>
<path d="M0 0 C2.27057377 -0.05398987 4.54151288 -0.09278742 6.8125 -0.125 C8.07707031 -0.14820313 9.34164063 -0.17140625 10.64453125 -0.1953125 C14 0 14 0 17 2 C17 2.66 17 3.32 17 4 C12.38 4 7.76 4 3 4 C3 6.64 3 9.28 3 12 C6.63 12 10.26 12 14 12 C14 12.33 14 12.66 14 13 C9.38 13 4.76 13 0 13 C0 8.71 0 4.42 0 0 Z " fill="#6B6B6B" transform="translate(357,279)"/>
<path d="M0 0 C4.95 0 9.9 0 15 0 C15 14.52 15 29.04 15 44 C14.67 44 14.34 44 14 44 C14 30.8 14 17.6 14 4 C9.38 4 4.76 4 0 4 C0 2.68 0 1.36 0 0 Z " fill="#2E7073" transform="translate(166,195)"/>
<path d="M0 0 C1.051875 0.433125 1.051875 0.433125 2.125 0.875 C3.07375 1.24625 4.0225 1.6175 5 2 C5.8765625 2.350625 6.753125 2.70125 7.65625 3.0625 C11.68271578 4.19141564 15.22425449 4.2225763 19.375 4.125 C20.11105469 4.11597656 20.84710938 4.10695312 21.60546875 4.09765625 C23.4037888 4.07430144 25.20193911 4.03843836 27 4 C27.33 5.65 27.66 7.3 28 9 C19.35195448 9.44860178 11.5892337 9.63951201 4 5 C1.375 2.25 1.375 2.25 0 0 Z " fill="#396E70" transform="translate(318,235)"/>
<path d="M0 0 C2 1.3125 2 1.3125 4 4 C4.72936395 8.99038489 4.59558302 13.48126331 2.75 18.1875 C2.1725 18.785625 1.595 19.38375 1 20 C-3 20 -3 20 -5 19 C-5 17 -5 17 -3.0625 15 C-2.381875 14.34 -1.70125 13.68 -1 13 C0.32229189 10.35541621 0.09677194 8.32238699 0.0625 5.375 C0.04896484 3.87066406 0.04896484 3.87066406 0.03515625 2.3359375 C0.02355469 1.56507813 0.01195312 0.79421875 0 0 Z " fill="#686868" transform="translate(387,278)"/>
<path d="M0 0 C1.45212891 -0.04253906 1.45212891 -0.04253906 2.93359375 -0.0859375 C5.5625 0.375 5.5625 0.375 7.41015625 2.3984375 C7.79042969 3.05070312 8.17070312 3.70296875 8.5625 4.375 C7.51449219 4.46587891 7.51449219 4.46587891 6.4453125 4.55859375 C5.53523438 4.64238281 4.62515625 4.72617187 3.6875 4.8125 C2.78257812 4.89371094 1.87765625 4.97492188 0.9453125 5.05859375 C-1.44860861 5.24489285 -1.44860861 5.24489285 -3.4375 6.375 C-4.57100534 8.39169827 -4.57100534 8.39169827 -5.4375 10.375 C-7 9.1875 -7 9.1875 -8.4375 7.375 C-7.99550744 1.33443506 -5.7676778 0.07659599 0 0 Z " fill="#626262" transform="translate(434.4375,278.625)"/>
<path d="M0 0 C2.05123248 2.05123248 2.64147118 3.27005063 3.625 5.9375 C3.88539063 6.62714844 4.14578125 7.31679688 4.4140625 8.02734375 C5 10 5 10 5 13 C1.7 13 -1.6 13 -5 13 C-3.35 8.71 -1.7 4.42 0 0 Z " fill="#2A2A2A" transform="translate(294,292)"/>
<path d="M0 0 C6.27 0 12.54 0 19 0 C18.01 1.32 17.02 2.64 16 4 C13.12961948 4.29561076 10.66245255 4.37943016 7.8125 4.25 C7.06291016 4.23195313 6.31332031 4.21390625 5.54101562 4.1953125 C3.6934629 4.14824109 1.84656841 4.07649766 0 4 C0 2.68 0 1.36 0 0 Z " fill="#686868" transform="translate(210,325)"/>
<path d="M0 0 C2 1.5625 2 1.5625 4 4 C4.25 7.75 4.25 7.75 4 11 C0.04 11 -3.92 11 -8 11 C-8 10.01 -8 9.02 -8 8 C-8.99 7.67 -9.98 7.34 -11 7 C-7.04 7 -3.08 7 1 7 C0.67 4.69 0.34 2.38 0 0 Z " fill="#6E6E6E" transform="translate(455,279)"/>
<path d="M0 0 C0.98613281 0.42152344 0.98613281 0.42152344 1.9921875 0.8515625 C4.2944414 1.7306049 6.52111102 2.47089082 8.8828125 3.1484375 C9.92115234 3.45007813 9.92115234 3.45007813 10.98046875 3.7578125 C12.41532482 4.17075833 13.85290354 4.57435376 15.29296875 4.96875 C19.41716333 6.18673644 21.8863362 7.14952718 24 11 C21.45417255 10.43157297 18.91440285 9.84593692 16.375 9.25 C15.66214844 9.09273438 14.94929688 8.93546875 14.21484375 8.7734375 C8.19783242 7.33818709 3.54854694 5.32282041 0 0 Z " fill="#696969" transform="translate(420,297)"/>
<path d="M0 0 C2.52370777 2.29427979 3.38262276 3.76524552 5 7 C0.05 7 -4.9 7 -10 7 C-10.66 5.68 -11.32 4.36 -12 3 C-6.06 2.505 -6.06 2.505 0 2 C0 1.34 0 0.68 0 0 Z " fill="#386C6E" transform="translate(281,236)"/>
<path d="M0 0 C4.98007945 0.03984064 8.86042473 1.46270759 12.9375 4.3125 C13.2675 4.9725 13.5975 5.6325 13.9375 6.3125 C13.24269531 6.14878906 12.54789062 5.98507813 11.83203125 5.81640625 C8.7022184 5.27154004 5.79951917 5.21511517 2.625 5.25 C1.02205078 5.26353516 1.02205078 5.26353516 -0.61328125 5.27734375 C-1.42152344 5.28894531 -2.22976563 5.30054688 -3.0625 5.3125 C-3.7225 3.9925 -4.3825 2.6725 -5.0625 1.3125 C-3.53126315 -0.21873685 -2.13037176 0.06942893 0 0 Z " fill="#276062" transform="translate(335.0625,193.6875)"/>
<path d="M0 0 C-0.33 1.65 -0.66 3.3 -1 5 C-5.62 5 -10.24 5 -15 5 C-14.67 3.68 -14.34 2.36 -14 1 C-4.58997722 -0.14806378 -4.58997722 -0.14806378 0 0 Z " fill="#676767" transform="translate(282,324)"/>
<path d="M0 0 C2 3 2 3 2 5 C-1.96 5 -5.92 5 -10 5 C-10.33 3.68 -10.66 2.36 -11 1 C-5.555 0.505 -5.555 0.505 0 0 Z " fill="#797979" transform="translate(320,324)"/>
<path d="M0 0 C2.97 0 5.94 0 9 0 C9.33 0.99 9.66 1.98 10 3 C7.03 3 4.06 3 1 3 C1 7.62 1 12.24 1 17 C0.67 17 0.34 17 0 17 C0 11.39 0 5.78 0 0 Z " fill="#3C787A" transform="translate(249,222)"/>
<path d="M0 0 C3.23339147 1.25163541 6.43509339 2.57931791 9.625 3.9375 C10.38039063 4.25589844 11.13578125 4.57429687 11.9140625 4.90234375 C14.0438238 6.02306084 15.40407171 7.21601647 17 9 C11.15120861 8.01220412 6.73132832 6.8081423 2 3 C1.34 2.01 0.68 1.02 0 0 Z " fill="#2D6163" transform="translate(318,235)"/>
<path d="M0 0 C0.66 0.33 1.32 0.66 2 1 C-2.5865441 7.19803257 -7.75353073 11.17876863 -15 14 C-15.99 13.67 -16.98 13.34 -18 13 C-16.89591797 12.45472656 -16.89591797 12.45472656 -15.76953125 11.8984375 C-9.89922899 8.87410741 -5.86128184 6.35597158 -2 1 C-1.34 0.67 -0.68 0.34 0 0 Z " fill="#070707" transform="translate(275,120)"/>
<path d="M0 0 C0 1.32 0 2.64 0 4 C-4.62 4 -9.24 4 -14 4 C-11.17991324 2.11994216 -9.65676336 1.54324907 -6.4375 0.875 C-5.65246094 0.70742187 -4.86742187 0.53984375 -4.05859375 0.3671875 C-2 0 -2 0 0 0 Z " fill="#376A6C" transform="translate(214,195)"/>
<path d="M0 0 C6.625 0.625 6.625 0.625 10 4 C6.7 4 3.4 4 0 4 C0 2.68 0 1.36 0 0 Z " fill="#747474" transform="translate(210,325)"/>
<path d="M0 0 C2.97 0 5.94 0 9 0 C6.3144406 2.6855594 3.62378672 3.06049974 0 4 C0 2.68 0 1.36 0 0 Z " fill="#2E6365" transform="translate(184,239)"/>
<path d="M0 0 C0.99 0 1.98 0 3 0 C3 1.98 3 3.96 3 6 C2.01 6.33 1.02 6.66 0 7 C0 4.69 0 2.38 0 0 Z " fill="#386D6F" transform="translate(211,187)"/>
<path d="M0 0 C3.63 0 7.26 0 11 0 C10.01 1.485 10.01 1.485 9 3 C4.545 2.01 4.545 2.01 0 1 C0 0.67 0 0.34 0 0 Z " fill="#777777" transform="translate(218,325)"/>
<path d="M0 0 C1.32 0 2.64 0 4 0 C4 1.32 4 2.64 4 4 C1.03 3.505 1.03 3.505 -2 3 C-1.34 2.01 -0.68 1.02 0 0 Z " fill="#151616" transform="translate(180,239)"/>
<path d="M0 0 C2.64 0.99 5.28 1.98 8 3 C8 3.99 8 4.98 8 6 C5.0280615 4.87548273 2.66559313 3.77706209 0 2 C0 1.34 0 0.68 0 0 Z " fill="#5C5C5C" transform="translate(420,322)"/>
</svg>
